<svg width="60" height="61" viewBox="0 0 60 61" fill="none" xmlns="http://www.w3.org/2000/svg">
<g clip-path="url(#clip0_5_3526)">
<g clip-path="url(#clip1_5_3526)">
<mask id="mask0_5_3526" style="mask-type:luminance" maskUnits="userSpaceOnUse" x="0" y="0" width="60" height="61">
<path d="M60 0.340088H0V60.3401H60V0.340088Z" fill="white"/>
</mask>
<g mask="url(#mask0_5_3526)">
<path d="M8.75573 37.0879L35.3054 10.5381C37.136 8.7075 40.104 8.7075 41.9345 10.5381L36.8955 5.49903C35.0649 3.66846 32.0969 3.66846 30.2663 5.49903L3.71668 32.0488C1.88611 33.8794 1.88611 36.8474 3.71668 38.6779L8.75573 43.7169C6.92515 41.8863 6.92515 38.9184 8.75573 37.0879Z" fill="#F9FBFC"/>
<path d="M50.1537 18.7572C51.9843 20.5878 51.9843 23.5558 50.1537 25.3864L23.6039 51.936C21.7733 53.7666 18.8053 53.7666 16.9748 51.936L3.71668 38.6779C1.88611 36.8473 1.88611 33.8793 3.71668 32.0487L30.2663 5.49903C32.0969 3.66845 35.0649 3.66845 36.8955 5.49903L43.5247 12.1282L52.9689 2.68396" stroke="#050B20" stroke-width="3" stroke-miterlimit="10" stroke-linecap="round" stroke-linejoin="round"/>
<path d="M18.9648 31.3859C18.7646 32.7956 19.2066 34.2789 20.2909 35.3633C22.1215 37.1938 25.0895 37.1938 26.9201 35.3633C28.7507 33.5327 28.7507 30.5647 26.9201 28.7341C25.0895 26.9035 25.0895 23.9355 26.9201 22.1049C28.7507 20.2743 31.7187 20.2743 33.5493 22.1049C34.6336 23.1892 35.0757 24.6726 34.8754 26.0822" stroke="#050B20" stroke-width="3" stroke-miterlimit="10" stroke-linecap="round" stroke-linejoin="round"/>
<path d="M16.9766 38.6779L20.2911 35.3633" stroke="#050B20" stroke-width="3" stroke-miterlimit="10" stroke-linecap="round" stroke-linejoin="round"/>
<path d="M33.5469 22.1051L36.8614 18.7905" stroke="#050B20" stroke-width="3" stroke-miterlimit="10" stroke-linecap="round" stroke-linejoin="round"/>
<path d="M43.5938 57.9963L57.6562 43.9338" stroke="#E1E1E1" stroke-width="3" stroke-miterlimit="10" stroke-linecap="round" stroke-linejoin="round"/>
</g>
</g>
</g>
<defs>
<clipPath id="clip0_5_3526">
<rect width="60" height="60" fill="white" transform="translate(0 0.340088)"/>
</clipPath>
<clipPath id="clip1_5_3526">
<rect width="60" height="60" fill="white" transform="translate(0 0.340088)"/>
</clipPath>
</defs>
</svg>
