<svg width="61" height="61" viewBox="0 0 61 61" fill="none" xmlns="http://www.w3.org/2000/svg">
<g clip-path="url(#clip0_5_3541)">
<path d="M24.0465 4.79321C20.3452 4.79321 16.9904 6.97091 15.4836 10.3515L9.38656 24.0307C5.73148 24.2819 2.84375 27.3244 2.84375 31.0432V36.4339C2.84375 39.6699 5.46711 42.2932 8.70312 42.2932H10.3092C10.3179 41.8423 10.3293 41.3915 10.3438 40.9406C9.9623 40.1631 9.74727 39.2891 9.74727 38.3646L9.64062 34.2073C9.64062 31.1328 10.2662 29.9495 12.5483 29.4898C13.6331 29.2712 14.5413 28.5321 14.9858 27.5187L22.5148 10.3515C24.0215 6.97091 27.3764 4.79321 31.0777 4.79321H24.0465Z" fill="#F9FBFC"/>
<path d="M8.70312 42.2932C5.46711 42.2932 2.84375 39.6699 2.84375 36.4339V31.0432C2.84375 27.3244 5.73148 24.2819 9.38656 24.0307L15.4836 10.3515C16.9903 6.97091 20.3451 4.79321 24.0465 4.79321H34.7217C38.2441 4.79321 41.4692 6.76759 43.0711 9.9047L46.0859 15.8089M58.1562 31.0432C58.1562 27.16 55.0082 24.012 51.125 24.012H19.1328M28.7422 15.8089V4.9104M32.9609 42.2932H27.6873M21.242 37.6057C18.6532 37.6057 16.5545 39.7044 16.5545 42.2932C16.5545 44.882 18.6532 46.9807 21.242 46.9807C23.8307 46.9807 25.9295 44.882 25.9295 42.2932C25.9295 39.7044 23.8309 37.6057 21.242 37.6057Z" stroke="#050B20" stroke-width="3" stroke-miterlimit="10" stroke-linecap="round" stroke-linejoin="round"/>
<path d="M58.1562 41.9417C58.1562 46.4398 54.5097 50.1448 50.0117 50.1448C45.5136 50.1448 41.8671 46.4984 41.8671 42.0003C41.8671 37.5021 45.5722 33.8557 50.0703 33.8557M44.0351 48.4456L36.5938 55.887" stroke="#E1E1E1" stroke-width="3" stroke-miterlimit="10" stroke-linecap="round" stroke-linejoin="round"/>
</g>
<defs>
<clipPath id="clip0_5_3541">
<rect width="60" height="60" fill="white" transform="translate(0.5 0.340088)"/>
</clipPath>
</defs>
</svg>
