<svg width="42" height="59" viewBox="0 0 42 59" fill="none" xmlns="http://www.w3.org/2000/svg">
<path d="M13.9688 52.3077C13.9688 52.0721 13.827 51.8596 13.6096 51.769C11.0682 50.7096 9.2812 48.2028 9.2812 45.2776V22.7776C9.2812 19.8524 11.0682 17.3455 13.6096 16.2862C13.827 16.1956 13.9688 15.983 13.9688 15.7475V15.7463H9.2812C5.398 15.7463 2.25 18.8944 2.25 22.7776V45.2776C2.25 49.1608 5.398 52.3089 9.2812 52.3089H13.9688V52.3077Z" fill="#F9FBFC"/>
<path d="M14.3711 40.6568L27.6295 27.3984" stroke="#E1E1E1" stroke-width="3" stroke-miterlimit="10" stroke-linecap="round" stroke-linejoin="round"/>
<path d="M21 20.4339L35.0625 1.68384" stroke="#050B20" stroke-width="3" stroke-miterlimit="10" stroke-linecap="round" stroke-linejoin="round"/>
<path d="M6.9375 1.68384L16.3895 12.2884" stroke="#050B20" stroke-width="3" stroke-miterlimit="10" stroke-linecap="round" stroke-linejoin="round"/>
<path d="M39.75 29.3401V22.7776C39.75 18.8944 36.602 15.7463 32.7188 15.7463H29.0747C27.4508 12.956 24.4612 11.0589 21 11.0589C17.5388 11.0589 14.5493 12.956 12.9253 15.7463H9.2812C5.398 15.7463 2.25 18.8944 2.25 22.7776V45.2776C2.25 49.1608 5.398 52.3089 9.2812 52.3089H12.9253C14.5492 55.0992 17.5388 56.9963 21 56.9963C24.4612 56.9963 27.4507 55.0992 29.0747 52.3089H32.7188C36.602 52.3089 39.75 49.1608 39.75 45.2776V38.7151" stroke="#050B20" stroke-width="3" stroke-miterlimit="10" stroke-linecap="round" stroke-linejoin="round"/>
</svg>
