<svg width="35" height="34" viewBox="0 0 35 34" fill="none" xmlns="http://www.w3.org/2000/svg">
<path d="M27.0625 13.8124H25.8194C25.6795 13.8133 25.5409 13.7865 25.4115 13.7336C25.282 13.6807 25.1643 13.6028 25.065 13.5043L22.2387 10.6781C21.5418 9.9811 20.7132 9.42962 19.8012 9.0557C18.8891 8.68177 17.9119 8.49286 16.9263 8.49995H7.9375C6.52854 8.49995 5.17728 9.05966 4.181 10.0559C3.18471 11.0522 2.625 12.4035 2.625 13.8124V19.1249C2.625 19.9703 2.96083 20.7811 3.5586 21.3789C4.15637 21.9766 4.96712 22.3124 5.8125 22.3124C5.8125 23.2987 6.2043 24.2446 6.9017 24.942C7.5991 25.6394 8.54498 26.0312 9.53125 26.0312C10.5175 26.0312 11.4634 25.6394 12.1608 24.942C12.8582 24.2446 13.25 23.2987 13.25 22.3124H20.7938C20.9112 23.2014 21.3478 24.0174 22.0221 24.6085C22.6965 25.1996 23.5626 25.5255 24.4594 25.5255C25.3561 25.5255 26.2223 25.1996 26.8966 24.6085C27.571 24.0174 28.0075 23.2014 28.125 22.3124H29.1875C30.0329 22.3124 30.8436 21.9766 31.4414 21.3789C32.0392 20.7811 32.375 19.9703 32.375 19.1249C32.375 17.716 31.8153 16.3647 30.819 15.3684C29.8227 14.3722 28.4715 13.8124 27.0625 13.8124ZM16.9794 10.6249C17.6775 10.6237 18.369 10.7601 19.0144 11.0262C19.6598 11.2924 20.2464 11.6832 20.7406 12.1762L22.3769 13.8124H9.255C9.05699 13.8138 8.86253 13.7598 8.69357 13.6566C8.5246 13.5533 8.38785 13.4049 8.29875 13.2281L7.06625 10.7631C7.34804 10.6734 7.64178 10.6268 7.9375 10.6249H16.9794ZM4.75 19.1249V13.8124C4.75058 13.1672 4.94694 12.5374 5.31313 12.0062L6.37563 14.1312C6.63626 14.6733 7.04495 15.1305 7.55446 15.4501C8.06398 15.7698 8.65353 15.9387 9.255 15.9374H15.375V20.1874H12.8781C12.5797 19.5519 12.1064 19.0144 11.5137 18.638C10.921 18.2615 10.2334 18.0616 9.53125 18.0616C8.8291 18.0616 8.14146 18.2615 7.54876 18.638C6.95607 19.0144 6.48282 19.5519 6.18437 20.1874H5.8125C5.53071 20.1874 5.26046 20.0755 5.0612 19.8763C4.86194 19.677 4.75 19.4067 4.75 19.1249ZM9.53125 23.3749C9.21604 23.3749 8.9079 23.2815 8.64581 23.1064C8.38372 22.9312 8.17944 22.6823 8.05882 22.3911C7.93819 22.0999 7.90663 21.7794 7.96812 21.4703C8.02962 21.1611 8.18141 20.8771 8.4043 20.6542C8.62719 20.4314 8.91117 20.2796 9.22032 20.2181C9.52948 20.1566 9.84993 20.1881 10.1412 20.3088C10.4324 20.4294 10.6813 20.6337 10.8564 20.8958C11.0315 21.1578 11.125 21.466 11.125 21.7812C11.125 22.2039 10.9571 22.6093 10.6582 22.9081C10.3593 23.207 9.95394 23.3749 9.53125 23.3749ZM24.4062 23.3749C24.091 23.3749 23.7829 23.2815 23.5208 23.1064C23.2587 22.9312 23.0544 22.6823 22.9338 22.3911C22.8132 22.0999 22.7816 21.7794 22.8431 21.4703C22.9046 21.1611 23.0564 20.8771 23.2793 20.6542C23.5022 20.4314 23.7862 20.2796 24.0953 20.2181C24.4045 20.1566 24.7249 20.1881 25.0162 20.3088C25.3074 20.4294 25.5563 20.6337 25.7314 20.8958C25.9065 21.1578 26 21.466 26 21.7812C26 22.2039 25.8321 22.6093 25.5332 22.9081C25.2343 23.207 24.8289 23.3749 24.4062 23.3749ZM29.1875 20.1874H27.7531C27.4547 19.5519 26.9814 19.0144 26.3887 18.638C25.796 18.2615 25.1084 18.0616 24.4062 18.0616C23.7041 18.0616 23.0165 18.2615 22.4238 18.638C21.8311 19.0144 21.3578 19.5519 21.0594 20.1874H17.5V15.9374H27.0625C27.5081 15.9398 27.9482 16.0356 28.3545 16.2186C28.7608 16.4017 29.1242 16.6678 29.4212 16.9999H29.1875C28.9057 16.9999 28.6355 17.1119 28.4362 17.3111C28.2369 17.5104 28.125 17.7807 28.125 18.0624C28.125 18.3442 28.2369 18.6145 28.4362 18.8138C28.6355 19.013 28.9057 19.1249 29.1875 19.1249H30.25C30.25 19.4067 30.1381 19.677 29.9388 19.8763C29.7395 20.0755 29.4693 20.1874 29.1875 20.1874Z" fill="#050B20"/>
</svg>
