<svg width="35" height="34" viewBox="0 0 35 34" fill="none" xmlns="http://www.w3.org/2000/svg">
<mask id="mask0_5_3175" style="mask-type:luminance" maskUnits="userSpaceOnUse" x="0" y="0" width="35" height="34">
<path d="M34.5 0H0.5V34H34.5V0Z" fill="white"/>
</mask>
<g mask="url(#mask0_5_3175)">
<path d="M33.3913 21.4348H32.2826V15.8914C32.2826 14.0573 30.7905 12.5653 28.9565 12.5653H25.3209L23.8616 8.1873C23.408 6.82704 22.1399 5.91309 20.7061 5.91309C20.5334 5.91309 8.54731 5.91309 8.26083 5.91309C6.81543 5.91309 5.58313 6.84005 5.12546 8.13046H3.82609C1.99208 8.13046 0.5 9.62254 0.5 11.4565V15.8914C0.5 17.7254 1.99208 19.2174 3.82609 19.2174H4.93481V21.4348H3.82609C3.21382 21.4348 2.71737 21.9312 2.71737 22.5435C2.71737 23.1559 3.21376 23.6523 3.82609 23.6523C4.86442 23.6523 6.1104 23.6523 7.15218 23.6523C7.15218 26.0976 9.14164 28.0871 11.587 28.0871C14.0323 28.0871 16.0218 26.0976 16.0218 23.6523H21.1957C21.1957 26.0976 23.1852 28.0871 25.6305 28.0871C28.0759 28.0871 30.0653 26.0976 30.0653 23.6523C31.1074 23.6523 32.3538 23.6523 33.3914 23.6523C34.0037 23.6523 34.5001 23.1559 34.5001 22.5435C34.5001 21.9312 34.0036 21.4348 33.3913 21.4348ZM4.93481 17H3.82609C3.21475 17 2.71737 16.5026 2.71737 15.8913V11.4565C2.71737 10.8451 3.21475 10.3478 3.82609 10.3478H4.93481C4.93481 11.0542 4.93481 16.315 4.93481 17ZM16.0217 8.13046H17.8696H20.7061C21.1841 8.13046 21.6068 8.43513 21.7579 8.88848L22.9834 12.5652H16.0217V8.13046ZM7.15218 9.23911C7.15218 8.62777 7.64956 8.13039 8.2609 8.13039H13.8044V12.5652H7.15218V9.23911ZM11.587 25.8696C10.3643 25.8696 9.36962 24.8749 9.36962 23.6522C9.36962 22.4295 10.3643 21.4348 11.587 21.4348C12.8097 21.4348 13.8044 22.4295 13.8044 23.6522C13.8044 24.8749 12.8097 25.8696 11.587 25.8696ZM25.6304 25.8696C24.4078 25.8696 23.4131 24.8749 23.4131 23.6522C23.4131 22.4295 24.4078 21.4348 25.6304 21.4348C26.8531 21.4348 27.8478 22.4295 27.8478 23.6522C27.8478 24.8749 26.8531 25.8696 25.6304 25.8696ZM30.0652 21.4348H29.4686C28.7005 20.1106 27.2683 19.2174 25.6304 19.2174C23.9926 19.2174 22.5604 20.1106 21.7923 21.4348H15.4251C14.6571 20.1106 13.2248 19.2174 11.587 19.2174C9.94914 19.2174 8.51689 20.1106 7.74884 21.4348H7.15225V18.1087V14.7826C8.96022 14.7826 27.7694 14.7826 28.9566 14.7826C29.5679 14.7826 30.0653 15.28 30.0653 15.8914L30.0652 21.4348Z" fill="#050B20"/>
<path d="M19.3495 17H17.1321C16.5198 17 16.0234 17.4964 16.0234 18.1087C16.0234 18.721 16.5198 19.2174 17.1321 19.2174H19.3495C19.9617 19.2174 20.4582 18.7211 20.4582 18.1087C20.4582 17.4964 19.9618 17 19.3495 17Z" fill="#050B20"/>
</g>
</svg>
