<svg width="18.000000" height="18.000000" viewBox="0 0 18 18" fill="none" xmlns="http://www.w3.org/2000/svg" xmlns:xlink="http://www.w3.org/1999/xlink">
	<desc>
			Created with Pixso.
	</desc>
	<defs>
		<clipPath id="clip5_3270">
			<rect id="Icon" rx="0.000000" width="17.000000" height="17.000000" transform="matrix(1 0 0 -1 0.5 18.5)" fill="white" fill-opacity="0"/>
		</clipPath>
	</defs>
	<g clip-path="url(#clip5_3270)">
		<path id="Vector" d="M3 1.68C2.44 1.68 1.96 1.88 1.56 2.28C1.16 2.68 0.96 3.17 0.96 3.75C0.96 4.33 1.16 4.82 1.56 5.21C1.96 5.62 2.44 5.82 3 5.82C3.56 5.82 4.03 5.62 4.44 5.21C4.83 4.82 5.03 4.33 5.03 3.75C5.03 3.17 4.83 2.68 4.44 2.28C4.03 1.88 3.56 1.68 3 1.68ZM3 2.82C3.24 2.82 3.46 2.91 3.66 3.09C3.85 3.27 3.96 3.48 3.96 3.75C3.96 4.01 3.85 4.22 3.66 4.41C3.46 4.59 3.24 4.68 3 4.68C2.76 4.68 2.53 4.59 2.33 4.41C2.14 4.22 2.03 4.01 2.03 3.75C2.03 3.48 2.14 3.27 2.33 3.09C2.53 2.91 2.76 2.82 3 2.82ZM3 12.18C2.44 12.18 1.96 12.38 1.56 12.78C1.16 13.18 0.96 13.67 0.96 14.25C0.96 14.83 1.16 15.32 1.56 15.72C1.96 16.12 2.44 16.32 3 16.32C3.56 16.32 4.03 16.12 4.44 15.72C4.83 15.32 5.03 14.83 5.03 14.25C5.03 13.67 4.83 13.18 4.44 12.78C4.03 12.38 3.56 12.18 3 12.18ZM3 13.32C3.24 13.32 3.46 13.41 3.66 13.59C3.85 13.77 3.96 13.99 3.96 14.25C3.96 14.51 3.85 14.73 3.66 14.91C3.46 15.09 3.24 15.18 3 15.18C2.76 15.18 2.53 15.09 2.33 14.91C2.14 14.73 2.03 14.51 2.03 14.25C2.03 13.99 2.14 13.77 2.33 13.59C2.53 13.41 2.76 13.32 3 13.32ZM9 1.68C8.44 1.68 7.96 1.88 7.56 2.28C7.16 2.68 6.96 3.17 6.96 3.75C6.96 4.33 7.16 4.82 7.56 5.21C7.96 5.62 8.44 5.82 9 5.82C9.56 5.82 10.03 5.62 10.44 5.21C10.83 4.82 11.03 4.33 11.03 3.75C11.03 3.17 10.83 2.68 10.44 2.28C10.03 1.88 9.56 1.68 9 1.68ZM9 2.82C9.24 2.82 9.46 2.91 9.66 3.09C9.85 3.27 9.96 3.48 9.96 3.75C9.96 4.01 9.85 4.22 9.66 4.41C9.46 4.59 9.24 4.68 9 4.68C8.76 4.68 8.53 4.59 8.33 4.41C8.14 4.22 8.03 4.01 8.03 3.75C8.03 3.48 8.14 3.27 8.33 3.09C8.53 2.91 8.76 2.82 9 2.82ZM9 12.18C8.44 12.18 7.96 12.38 7.56 12.78C7.16 13.18 6.96 13.67 6.96 14.25C6.96 14.83 7.16 15.32 7.56 15.72C7.96 16.12 8.44 16.32 9 16.32C9.56 16.32 10.03 16.12 10.44 15.72C10.83 15.32 11.03 14.83 11.03 14.25C11.03 13.67 10.83 13.18 10.44 12.78C10.03 12.38 9.56 12.18 9 12.18ZM9 13.32C9.24 13.32 9.46 13.41 9.66 13.59C9.85 13.77 9.96 13.99 9.96 14.25C9.96 14.51 9.85 14.73 9.66 14.91C9.46 15.09 9.24 15.18 9 15.18C8.76 15.18 8.53 15.09 8.33 14.91C8.14 14.73 8.03 14.51 8.03 14.25C8.03 13.99 8.14 13.77 8.33 13.59C8.53 13.41 8.76 13.32 9 13.32ZM15 1.68C14.44 1.68 13.96 1.88 13.56 2.28C13.16 2.68 12.96 3.17 12.96 3.75C12.96 4.33 13.16 4.82 13.56 5.21C13.96 5.62 14.44 5.82 15 5.82C15.56 5.82 16.03 5.62 16.44 5.21C16.83 4.82 17.03 4.33 17.03 3.75C17.03 3.17 16.83 2.68 16.44 2.28C16.03 1.88 15.56 1.68 15 1.68ZM15 2.82C15.24 2.82 15.46 2.91 15.66 3.09C15.85 3.27 15.96 3.48 15.96 3.75C15.96 4.01 15.85 4.22 15.66 4.41C15.46 4.59 15.24 4.68 15 4.68C14.76 4.68 14.53 4.59 14.33 4.41C14.14 4.22 14.03 4.01 14.03 3.75C14.03 3.48 14.14 3.27 14.33 3.09C14.53 2.91 14.76 2.82 15 2.82ZM15 12.18C14.44 12.18 13.96 12.38 13.56 12.78C13.16 13.18 12.96 13.67 12.96 14.25C12.96 14.83 13.16 15.32 13.56 15.72C13.96 16.12 14.44 16.32 15 16.32C15.56 16.32 16.03 16.12 16.44 15.72C16.83 15.32 17.03 14.83 17.03 14.25C17.03 13.67 16.83 13.18 16.44 12.78C16.03 12.38 15.56 12.18 15 12.18ZM15 13.32C15.24 13.32 15.46 13.41 15.66 13.59C15.85 13.77 15.96 13.99 15.96 14.25C15.96 14.51 15.85 14.73 15.66 14.91C15.46 15.09 15.24 15.18 15 15.18C14.76 15.18 14.53 15.09 14.33 14.91C14.14 14.73 14.03 14.51 14.03 14.25C14.03 13.99 14.14 13.77 14.33 13.59C14.53 13.41 14.76 13.32 15 13.32ZM2.46 5.21L2.46 12.72C2.46 12.88 2.51 13.02 2.6 13.14C2.71 13.26 2.83 13.32 3 13.32C3.16 13.32 3.28 13.26 3.39 13.14C3.49 13.02 3.53 12.9 3.53 12.78L3.53 5.21C3.53 5.1 3.49 4.97 3.39 4.86C3.28 4.73 3.16 4.68 3 4.68C2.83 4.68 2.71 4.73 2.6 4.86C2.51 4.97 2.46 5.1 2.46 5.21ZM8.46 5.21L8.46 12.72C8.46 12.88 8.51 13.02 8.6 13.14C8.71 13.26 8.83 13.32 9 13.32C9.16 13.32 9.28 13.26 9.39 13.14C9.49 13.02 9.53 12.9 9.53 12.78L9.53 5.21C9.53 5.1 9.49 4.97 9.39 4.86C9.28 4.73 9.16 4.68 9 4.68C8.83 4.68 8.71 4.73 8.6 4.86C8.51 4.97 8.46 5.1 8.46 5.21ZM14.46 5.21L14.46 8.21C14.46 8.3 14.44 8.36 14.4 8.4C14.35 8.44 14.32 8.45 14.28 8.45L3 8.45C2.83 8.45 2.71 8.51 2.6 8.61C2.51 8.7 2.46 8.84 2.46 9C2.46 9.16 2.51 9.29 2.6 9.39C2.71 9.48 2.83 9.54 3 9.54L14.28 9.54C14.64 9.54 14.94 9.42 15.17 9.18C15.42 8.94 15.53 8.62 15.53 8.21L15.53 5.28C15.53 5.12 15.49 4.97 15.39 4.86C15.28 4.73 15.16 4.68 15 4.68C14.83 4.68 14.71 4.73 14.6 4.86C14.51 4.97 14.46 5.1 14.46 5.21Z" fill="#050B20" fill-opacity="1.000000" fill-rule="nonzero"/>
	</g>
</svg>
