<svg width="20" height="19" viewBox="0 0 20 19" fill="none" xmlns="http://www.w3.org/2000/svg">
<path d="M2.80583 0.683327C2.12139 0.683327 1.53472 0.927773 1.04583 1.41666C0.556944 1.90555 0.3125 2.50444 0.3125 3.21333C0.3125 3.92222 0.556944 4.5211 1.04583 5.00999C1.53472 5.49888 2.12139 5.74333 2.80583 5.74333C3.49028 5.74333 4.07694 5.49888 4.56583 5.00999C5.05472 4.5211 5.29917 3.92222 5.29917 3.21333C5.29917 2.50444 5.05472 1.90555 4.56583 1.41666C4.07694 0.927773 3.49028 0.683327 2.80583 0.683327ZM2.80583 2.07666C3.09917 2.07666 3.36806 2.18666 3.6125 2.40666C3.85694 2.62666 3.97917 2.89555 3.97917 3.21333C3.97917 3.53111 3.85694 3.79999 3.6125 4.01999C3.36806 4.23999 3.09917 4.34999 2.80583 4.34999C2.5125 4.34999 2.24361 4.23999 1.99917 4.01999C1.75472 3.79999 1.6325 3.53111 1.6325 3.21333C1.6325 2.89555 1.75472 2.62666 1.99917 2.40666C2.24361 2.18666 2.5125 2.07666 2.80583 2.07666ZM2.80583 13.5167C2.12139 13.5167 1.53472 13.7611 1.04583 14.25C0.556944 14.7389 0.3125 15.3378 0.3125 16.0467C0.3125 16.7555 0.556944 17.3544 1.04583 17.8433C1.53472 18.3322 2.12139 18.5767 2.80583 18.5767C3.49028 18.5767 4.07694 18.3322 4.56583 17.8433C5.05472 17.3544 5.29917 16.7555 5.29917 16.0467C5.29917 15.3378 5.05472 14.7389 4.56583 14.25C4.07694 13.7611 3.49028 13.5167 2.80583 13.5167ZM2.80583 14.91C3.09917 14.91 3.36806 15.02 3.6125 15.24C3.85694 15.46 3.97917 15.7289 3.97917 16.0467C3.97917 16.3644 3.85694 16.6333 3.6125 16.8533C3.36806 17.0733 3.09917 17.1833 2.80583 17.1833C2.5125 17.1833 2.24361 17.0733 1.99917 16.8533C1.75472 16.6333 1.6325 16.3644 1.6325 16.0467C1.6325 15.7289 1.75472 15.46 1.99917 15.24C2.24361 15.02 2.5125 14.91 2.80583 14.91ZM10.1392 0.683327C9.45472 0.683327 8.86806 0.927773 8.37917 1.41666C7.89028 1.90555 7.64583 2.50444 7.64583 3.21333C7.64583 3.92222 7.89028 4.5211 8.37917 5.00999C8.86806 5.49888 9.45472 5.74333 10.1392 5.74333C10.8236 5.74333 11.4103 5.49888 11.8992 5.00999C12.3881 4.5211 12.6325 3.92222 12.6325 3.21333C12.6325 2.50444 12.3881 1.90555 11.8992 1.41666C11.4103 0.927773 10.8236 0.683327 10.1392 0.683327ZM10.1392 2.07666C10.4325 2.07666 10.7014 2.18666 10.9458 2.40666C11.1903 2.62666 11.3125 2.89555 11.3125 3.21333C11.3125 3.53111 11.1903 3.79999 10.9458 4.01999C10.7014 4.23999 10.4325 4.34999 10.1392 4.34999C9.84583 4.34999 9.57694 4.23999 9.3325 4.01999C9.08806 3.79999 8.96583 3.53111 8.96583 3.21333C8.96583 2.89555 9.08806 2.62666 9.3325 2.40666C9.57694 2.18666 9.84583 2.07666 10.1392 2.07666ZM10.1392 13.5167C9.45472 13.5167 8.86806 13.7611 8.37917 14.25C7.89028 14.7389 7.64583 15.3378 7.64583 16.0467C7.64583 16.7555 7.89028 17.3544 8.37917 17.8433C8.86806 18.3322 9.45472 18.5767 10.1392 18.5767C10.8236 18.5767 11.4103 18.3322 11.8992 17.8433C12.3881 17.3544 12.6325 16.7555 12.6325 16.0467C12.6325 15.3378 12.3881 14.7389 11.8992 14.25C11.4103 13.7611 10.8236 13.5167 10.1392 13.5167ZM10.1392 14.91C10.4325 14.91 10.7014 15.02 10.9458 15.24C11.1903 15.46 11.3125 15.7289 11.3125 16.0467C11.3125 16.3644 11.1903 16.6333 10.9458 16.8533C10.7014 17.0733 10.4325 17.1833 10.1392 17.1833C9.84583 17.1833 9.57694 17.0733 9.3325 16.8533C9.08806 16.6333 8.96583 16.3644 8.96583 16.0467C8.96583 15.7289 9.08806 15.46 9.3325 15.24C9.57694 15.02 9.84583 14.91 10.1392 14.91ZM17.4725 0.683327C16.7881 0.683327 16.2014 0.927773 15.7125 1.41666C15.2236 1.90555 14.9792 2.50444 14.9792 3.21333C14.9792 3.92222 15.2236 4.5211 15.7125 5.00999C16.2014 5.49888 16.7881 5.74333 17.4725 5.74333C18.1569 5.74333 18.7436 5.49888 19.2325 5.00999C19.7214 4.5211 19.9658 3.92222 19.9658 3.21333C19.9658 2.50444 19.7214 1.90555 19.2325 1.41666C18.7436 0.927773 18.1569 0.683327 17.4725 0.683327ZM17.4725 2.07666C17.7658 2.07666 18.0347 2.18666 18.2792 2.40666C18.5236 2.62666 18.6458 2.89555 18.6458 3.21333C18.6458 3.53111 18.5236 3.79999 18.2792 4.01999C18.0347 4.23999 17.7658 4.34999 17.4725 4.34999C17.1792 4.34999 16.9103 4.23999 16.6658 4.01999C16.4214 3.79999 16.2992 3.53111 16.2992 3.21333C16.2992 2.89555 16.4214 2.62666 16.6658 2.40666C16.9103 2.18666 17.1792 2.07666 17.4725 2.07666ZM17.4725 13.5167C16.7881 13.5167 16.2014 13.7611 15.7125 14.25C15.2236 14.7389 14.9792 15.3378 14.9792 16.0467C14.9792 16.7555 15.2236 17.3544 15.7125 17.8433C16.2014 18.3322 16.7881 18.5767 17.4725 18.5767C18.1569 18.5767 18.7436 18.3322 19.2325 17.8433C19.7214 17.3544 19.9658 16.7555 19.9658 16.0467C19.9658 15.3378 19.7214 14.7389 19.2325 14.25C18.7436 13.7611 18.1569 13.5167 17.4725 13.5167ZM17.4725 14.91C17.7658 14.91 18.0347 15.02 18.2792 15.24C18.5236 15.46 18.6458 15.7289 18.6458 16.0467C18.6458 16.3644 18.5236 16.6333 18.2792 16.8533C18.0347 17.0733 17.7658 17.1833 17.4725 17.1833C17.1792 17.1833 16.9103 17.0733 16.6658 16.8533C16.4214 16.6333 16.2992 16.3644 16.2992 16.0467C16.2992 15.7289 16.4214 15.46 16.6658 15.24C16.9103 15.02 17.1792 14.91 17.4725 14.91ZM2.14583 5.00999V14.1767C2.14583 14.3722 2.20694 14.5433 2.32917 14.69C2.45139 14.8367 2.61028 14.91 2.80583 14.91C3.00139 14.91 3.16028 14.8367 3.2825 14.69C3.40472 14.5433 3.46583 14.3967 3.46583 14.25V5.00999C3.46583 4.86333 3.40472 4.71666 3.2825 4.56999C3.16028 4.42333 3.00139 4.34999 2.80583 4.34999C2.61028 4.34999 2.45139 4.42333 2.32917 4.56999C2.20694 4.71666 2.14583 4.86333 2.14583 5.00999ZM9.47917 5.00999V14.1767C9.47917 14.3722 9.54028 14.5433 9.6625 14.69C9.78472 14.8367 9.94361 14.91 10.1392 14.91C10.3347 14.91 10.4936 14.8367 10.6158 14.69C10.7381 14.5433 10.7992 14.3967 10.7992 14.25V5.00999C10.7992 4.86333 10.7381 4.71666 10.6158 4.56999C10.4936 4.42333 10.3347 4.34999 10.1392 4.34999C9.94361 4.34999 9.78472 4.42333 9.6625 4.56999C9.54028 4.71666 9.47917 4.86333 9.47917 5.00999ZM16.8125 5.00999V8.67666C16.8125 8.77444 16.7881 8.84777 16.7392 8.89666C16.6903 8.94555 16.6414 8.96999 16.5925 8.96999H2.80583C2.61028 8.96999 2.45139 9.03111 2.32917 9.15333C2.20694 9.27555 2.14583 9.43444 2.14583 9.62999C2.14583 9.82555 2.20694 9.98444 2.32917 10.1067C2.45139 10.2289 2.61028 10.29 2.80583 10.29H16.5925C17.0325 10.29 17.3992 10.1433 17.6925 9.84999C17.9858 9.55666 18.1325 9.16555 18.1325 8.67666V5.08333C18.1325 4.88777 18.0714 4.71666 17.9492 4.56999C17.8269 4.42333 17.6681 4.34999 17.4725 4.34999C17.2769 4.34999 17.1181 4.42333 16.9958 4.56999C16.8736 4.71666 16.8125 4.86333 16.8125 5.00999Z" fill="white"/>
</svg>
