<svg width="8" height="12" viewBox="0 0 8 12" fill="none" xmlns="http://www.w3.org/2000/svg">
<path d="M0.558594 6C0.558594 5.76 0.651927 5.56 0.838594 5.4L5.99859 0.240001C6.15859 0.0799999 6.35193 0 6.57859 0C6.80526 0 7.00526 0.0799999 7.17859 0.240001C7.35193 0.400001 7.43859 0.6 7.43859 0.84C7.43859 1.08 7.34526 1.28 7.15859 1.44L2.59859 6L7.15859 10.56C7.31859 10.72 7.39859 10.92 7.39859 11.16C7.39859 11.4 7.31859 11.6 7.15859 11.76C6.99859 11.92 6.80526 12 6.57859 12C6.35193 12 6.15859 11.92 5.99859 11.76L0.838594 6.6C0.651927 6.44 0.558594 6.24 0.558594 6Z" fill="#050B20"/>
</svg>
