<svg width="8" height="12" viewBox="0 0 8 12" fill="none" xmlns="http://www.w3.org/2000/svg">
<path d="M7.17652 6.6L2.02083 11.76C1.86096 11.92 1.66779 12 1.44131 12C1.21484 12 1.015 11.92 0.841814 11.76C0.668625 11.6 0.582031 11.4 0.582031 11.16C0.582031 10.92 0.675287 10.72 0.861797 10.56L5.41799 6L0.861797 1.44C0.675287 1.28 0.582031 1.08 0.582031 0.84C0.582031 0.6 0.668625 0.400001 0.841814 0.240001C1.015 0.0800007 1.21484 0 1.44131 0C1.66779 0 1.86096 0.0800007 2.02083 0.240001L7.17652 5.4C7.36303 5.56 7.45628 5.76 7.45628 6C7.45628 6.24 7.36303 6.44 7.17652 6.6Z" fill="#050B20"/>
</svg>
