<svg width="16.921875" height="18.000000" viewBox="0 0 16.9219 18" fill="none" xmlns="http://www.w3.org/2000/svg" xmlns:xlink="http://www.w3.org/1999/xlink">
	<desc>
			Created with Pixso.
	</desc>
	<defs/>
	<path id="Vector" d="M10.14 3.36C10.14 3.19 10.08 3.07 9.98 2.96C9.89 2.87 9.76 2.82 9.6 2.82L3.96 2.82C3.8 2.82 3.67 2.87 3.57 2.96C3.46 3.07 3.42 3.19 3.42 3.36L3.42 7.86C3.42 8.02 3.46 8.15 3.57 8.28C3.67 8.39 3.8 8.45 3.96 8.45L9.6 8.45C9.76 8.45 9.89 8.39 9.98 8.28C10.08 8.15 10.14 8.02 10.14 7.86L10.14 3.36ZM9 7.32L4.5 7.32L4.5 3.95L9 3.95L9 7.32ZM16.62 3.95L14.33 2.87C14.21 2.8 14.07 2.78 13.92 2.82C13.76 2.86 13.64 2.94 13.58 3.09C13.53 3.22 13.51 3.37 13.55 3.54C13.6 3.69 13.69 3.8 13.85 3.84L14.69 4.32L14.64 4.5C14.64 4.86 14.75 5.17 14.96 5.45C15.19 5.73 15.46 5.93 15.78 6.06L15.78 12.89C15.78 13.06 15.71 13.2 15.6 13.32C15.48 13.43 15.35 13.5 15.21 13.5C15.07 13.5 14.94 13.43 14.82 13.32C14.69 13.2 14.64 13.06 14.64 12.89L14.64 8.39C14.64 7.76 14.41 7.17 13.94 6.65C13.48 6.13 12.98 5.82 12.42 5.69L12.42 2.21C12.42 1.62 12.19 1.1 11.76 0.65C11.32 0.21 10.8 0 10.19 0L3.42 0C2.82 0 2.28 0.21 1.82 0.65C1.37 1.1 1.14 1.62 1.14 2.21L1.14 14.82L0.35 15.24C0.12 15.36 0 15.52 0 15.72L0 17.39C0 17.56 0.05 17.7 0.17 17.82C0.3 17.93 0.44 18 0.6 18L12.96 18C13.12 18 13.25 17.93 13.35 17.82C13.44 17.7 13.5 17.56 13.5 17.39L13.5 15.72C13.5 15.52 13.39 15.36 13.19 15.24L12.42 14.82L12.42 6.84C12.69 6.95 12.94 7.16 13.17 7.46C13.39 7.77 13.5 8.08 13.5 8.39L13.5 12.89C13.5 13.37 13.67 13.79 14.01 14.12C14.35 14.47 14.75 14.63 15.21 14.63C15.67 14.63 16.07 14.47 16.41 14.12C16.75 13.79 16.92 13.37 16.92 12.89L16.92 4.5C16.92 4.26 16.82 4.08 16.62 3.95ZM12.42 16.86L1.14 16.86L1.14 16.08L1.98 15.65C2.17 15.58 2.28 15.41 2.28 15.17L2.28 2.21C2.28 1.93 2.39 1.68 2.6 1.46C2.82 1.25 3.1 1.13 3.42 1.13L10.19 1.13C10.48 1.13 10.73 1.25 10.94 1.46C11.17 1.68 11.28 1.93 11.28 2.21L11.28 15.17C11.28 15.41 11.37 15.58 11.57 15.65L12.42 16.08L12.42 16.86Z" fill="#050B20" fill-opacity="1.000000" fill-rule="nonzero"/>
</svg>
