<svg width="18.000000" height="18.000000" viewBox="0 0 18 18" fill="none" xmlns="http://www.w3.org/2000/svg" xmlns:xlink="http://www.w3.org/1999/xlink">
	<desc>
			Created with Pixso.
	</desc>
	<defs>
		<clipPath id="clip5_3264">
			<rect id="Icon" rx="0.000000" width="17.000000" height="17.000000" transform="matrix(1 0 0 -1 0.5 18.5)" fill="white" fill-opacity="0"/>
		</clipPath>
	</defs>
	<g clip-path="url(#clip5_3264)">
		<path id="Vector" d="M18 10.61C18 12.65 17.39 14.48 16.19 16.08C16.07 16.24 15.92 16.33 15.71 16.34C15.51 16.36 15.33 16.32 15.17 16.2C15.01 16.08 14.92 15.92 14.91 15.75C14.89 15.57 14.94 15.39 15.05 15.24C16.1 13.87 16.62 12.33 16.62 10.61C16.62 9.26 16.28 8 15.6 6.83C14.92 5.67 13.98 4.76 12.8 4.08C11.62 3.39 10.35 3.06 9 3.06C7.64 3.06 6.37 3.39 5.19 4.08C4.01 4.76 3.07 5.67 2.39 6.83C1.71 8 1.37 9.26 1.37 10.61C1.37 12.33 1.89 13.87 2.94 15.24C3.05 15.39 3.1 15.57 3.08 15.75C3.07 15.92 2.98 16.08 2.82 16.2C2.66 16.32 2.48 16.36 2.28 16.34C2.07 16.33 1.92 16.24 1.8 16.08C0.6 14.48 0 12.65 0 10.61C0 9.02 0.39 7.53 1.19 6.14C2 4.77 3.08 3.67 4.46 2.87C5.85 2.08 7.35 1.67 9 1.67C10.64 1.67 12.14 2.08 13.53 2.87C14.91 3.67 16 4.77 16.8 6.14C17.6 7.53 18 9.02 18 10.61ZM13.44 6.41C13.6 6.54 13.67 6.69 13.67 6.89C13.67 7.09 13.6 7.26 13.44 7.37L11.16 9.71C11.35 10.08 11.46 10.46 11.46 10.85C11.46 11.54 11.21 12.11 10.73 12.59C10.26 13.08 9.67 13.32 9 13.32C8.32 13.32 7.73 13.08 7.26 12.59C6.78 12.11 6.53 11.54 6.53 10.85C6.53 10.17 6.78 9.59 7.26 9.11C7.73 8.63 8.32 8.39 9 8.39C9.39 8.39 9.78 8.5 10.14 8.69L12.48 6.41C12.6 6.26 12.76 6.17 12.96 6.17C13.16 6.17 13.32 6.26 13.44 6.41ZM10.07 10.85C10.07 10.58 9.96 10.33 9.75 10.13C9.53 9.93 9.28 9.83 9 9.83C8.71 9.83 8.46 9.93 8.25 10.13C8.03 10.33 7.92 10.58 7.92 10.85C7.92 11.13 8.03 11.38 8.25 11.6C8.46 11.83 8.71 11.93 9 11.93C9.28 11.93 9.53 11.83 9.75 11.6C9.96 11.38 10.07 11.13 10.07 10.85Z" fill="#050B20" fill-opacity="1.000000" fill-rule="nonzero"/>
	</g>
</svg>
